<?xml version="1.0" encoding="utf-8"?>
<!-- Generator: Adobe Illustrator 16.0.0, SVG Export Plug-In . SVG Version: 6.00 Build 0)  -->
<!DOCTYPE svg PUBLIC "-//W3C//DTD SVG 1.1//EN" "http://www.w3.org/Graphics/SVG/1.1/DTD/svg11.dtd">
<svg version="1.1" id="Layer_1" xmlns="http://www.w3.org/2000/svg" xmlns:xlink="http://www.w3.org/1999/xlink" x="0px" y="0px"
	 width="176.603px" height="169.491px" viewBox="0 0 176.603 169.491" enable-background="new 0 0 176.603 169.491"
	 xml:space="preserve">
<g>
	<path fill="#555555" d="M88.301,130.792c-25.392,0-46.047-20.654-46.047-46.046c0-25.391,20.655-46.047,46.047-46.047
		s46.047,20.656,46.047,46.047C134.348,110.136,113.691,130.792,88.301,130.792z M88.301,42.396
		c-23.353,0-42.353,18.998-42.353,42.351c0,23.354,19,42.352,42.353,42.352s42.351-18.998,42.351-42.352
		C130.65,61.395,111.652,42.396,88.301,42.396z"/>
	<path fill="#555555" d="M112.699,77.02h-10.797l-9.226-6.795c-0.342-0.262-0.76-0.205-1.188-0.205H78.484
		c-0.599,0-1.16,0.073-1.535,0.536l-5.366,6.464h-7.681c-1.088,0-1.361,0.558-1.361,1.646v14.786c0,1.09,0.273,2.568,1.361,2.568
		h4.772c0.658,3,3.226,5.012,6.287,5.012c3.063,0,5.627-2.012,6.282-5.012h15.607c0.655,3,3.221,5.012,6.282,5.012
		c3.063,0,5.63-2.012,6.287-5.012h3.274c1.086,0,2.842-1.48,2.842-2.568V78.666C115.541,77.577,113.785,77.02,112.699,77.02z
		 M74.963,97.335c-0.992,0-1.861-0.314-2.349-1.314h4.692C76.822,97.021,75.953,97.335,74.963,97.335z M103.137,97.335
		c-0.989,0-1.858-0.314-2.344-1.314h4.69C104.996,97.021,104.129,97.335,103.137,97.335z M111.541,92.021h-46V81.02h6.982
		c0.598,0,1.159-0.573,1.534-1.039l5.369-5.961h11.396l9.228,6.298c0.344,0.258,0.76,0.702,1.188,0.702h10.301L111.541,92.021
		L111.541,92.021z"/>
</g>
</svg>
