<?xml version="1.0" encoding="utf-8"?>
<!-- Generator: Adobe Illustrator 16.0.0, SVG Export Plug-In . SVG Version: 6.00 Build 0)  -->
<!DOCTYPE svg PUBLIC "-//W3C//DTD SVG 1.1//EN" "http://www.w3.org/Graphics/SVG/1.1/DTD/svg11.dtd">
<svg version="1.1" id="Layer_1" xmlns="http://www.w3.org/2000/svg" xmlns:xlink="http://www.w3.org/1999/xlink" x="0px" y="0px"
	 width="176.603px" height="169.491px" viewBox="0 0 176.603 169.491" enable-background="new 0 0 176.603 169.491"
	 xml:space="preserve">
<g>
	<path fill="#555555" d="M88.302,130.792c-25.392,0-46.047-20.654-46.047-46.046c0-25.391,20.655-46.047,46.047-46.047
		c25.39,0,46.046,20.656,46.046,46.047C134.348,110.136,113.691,130.792,88.302,130.792z M88.302,42.396
		c-23.353,0-42.351,18.998-42.351,42.351c0,23.354,18.998,42.352,42.351,42.352c23.351,0,42.35-18.998,42.35-42.352
		C130.651,61.395,111.652,42.396,88.302,42.396z"/>
	<g>
		<path fill="#555555" d="M88.229,72.793c-6.592,0-11.953,5.362-11.953,11.951c0,6.593,5.361,11.954,11.953,11.954
			c6.59,0,11.953-5.363,11.953-11.954C100.183,78.157,94.819,72.793,88.229,72.793z M88.229,93.001
			c-4.553,0-8.256-3.703-8.256-8.257c0-4.553,3.703-8.255,8.256-8.255s8.256,3.702,8.256,8.255
			C96.485,89.298,92.781,93.001,88.229,93.001z"/>
		<path fill="#555555" d="M88.718,71.931c1.088,0,2-0.884,2-1.97v-9.857c0-1.09-0.912-1.973-2-1.973c-1.09,0-2,0.883-2,1.973v9.857
			C86.718,71.048,87.628,71.931,88.718,71.931z"/>
		<path fill="#555555" d="M88.718,97.562c-1.09,0-2,0.883-2,1.973v9.855c0,1.09,0.91,1.973,2,1.973c1.088,0,2-0.885,2-1.973v-9.855
			C90.718,98.444,89.806,97.562,88.718,97.562z"/>
		<path fill="#555555" d="M75.36,85.02c0-1.09-0.883-2-1.971-2h-9.857c-1.09,0-1.973,0.91-1.973,2c0,1.091,0.883,2.001,1.973,2.001
			h9.857C74.478,87.021,75.36,86.11,75.36,85.02z"/>
		<path fill="#555555" d="M112.817,83.02h-9.856c-1.089,0-1.972,0.91-1.972,2c0,1.091,0.883,2.001,1.972,2.001h9.856
			c1.09,0,1.973-0.91,1.973-2.001C114.79,83.93,113.906,83.02,112.817,83.02z"/>
		<path fill="#555555" d="M76.41,93.896l-6.969,6.969c-0.723,0.723-0.723,1.895,0,2.615c0.361,0.359,0.834,0.541,1.307,0.541
			c0.475,0,0.945-0.182,1.308-0.541l6.971-6.971c0.721-0.723,0.721-1.895,0-2.613C78.304,93.173,77.136,93.173,76.41,93.896z"/>
		<path fill="#555555" d="M98.63,76.139c0.473,0,0.944-0.182,1.307-0.542l6.971-6.972c0.723-0.722,0.723-1.893,0-2.611
			c-0.723-0.725-1.893-0.725-2.613,0l-6.971,6.969c-0.723,0.726-0.723,1.896,0,2.614C97.684,75.958,98.156,76.139,98.63,76.139z"/>
		<path fill="#555555" d="M76.41,75.597c0.362,0.36,0.835,0.542,1.31,0.542c0.473,0,0.944-0.182,1.307-0.542
			c0.721-0.722,0.721-1.892,0-2.614l-6.971-6.969c-0.724-0.725-1.893-0.725-2.613,0c-0.723,0.721-0.723,1.892,0,2.611L76.41,75.597z
			"/>
		<path fill="#555555" d="M103.559,97.677l1.694-1.859c0.407-0.381,0.536-0.988,0.536-1.527c0-0.602-0.596-1.27-1.235-1.27h-4.84
			c-0.516,0-0.937,0.49-0.937,1c0,0.506,0.421,1,0.937,1h3.053l-1.928,2.193c-0.343,0.338-0.476,0.584-0.476,0.881
			c0,0.516,0.433,0.926,0.945,0.926h0.336c1.226,0,3.072,0.721,3.072,1.521v0.039c0,0.729-1.146,1.199-1.966,1.199
			c-0.783,0-1.663-0.25-2.229-0.742c-0.168-0.141-0.521-0.27-0.835-0.27c-0.567,0-1.121,0.488-1.121,1.059
			c0,0.313,0.13,0.605,0.325,0.773c0.813,0.699,2.362,1.137,3.767,1.137c2.228,0,4.061-1.379,4.061-3.25v-0.025
			C106.718,98.614,104.902,97.911,103.559,97.677z"/>
	</g>
</g>
<g>
	<path fill="#555555" d="M535.034,130.792c-25.392,0-46.048-20.654-46.048-46.045c0-25.391,20.656-46.047,46.048-46.047
		c25.391,0,46.047,20.656,46.047,46.047C581.081,110.136,560.425,130.792,535.034,130.792z M535.034,42.397
		c-23.353,0-42.351,18.998-42.351,42.351c0,23.353,18.998,42.351,42.351,42.351s42.353-18.998,42.353-42.351
		C577.387,61.395,558.387,42.397,535.034,42.397z"/>
	<path fill="#555555" d="M557.214,104.021h-44.358c-1.086,0-1.219-0.936-1.219-2.023v-34.5c0-1.09,0.133-1.478,1.219-1.478h7.888
		c1.09,0,2.896,0.388,2.896,1.478v15.509l14.698-10.242c0.604-0.408,0.998-0.45,1.644-0.105c0.646,0.341,0.658,1.011,0.658,1.739
		v9.021l15.286-10.634c0.604-0.423,1.693-0.478,2.349-0.138c0.649,0.341,1.365,1.015,1.365,1.75v27.602
		C559.637,103.085,558.303,104.021,557.214,104.021z M515.637,100.021h40V78.192l-15.328,10.631
		c-0.604,0.424-1.672,0.477-2.326,0.137c-0.651-0.338-1.346-1.014-1.346-1.748v-9.104l-14.978,10.245
		c-0.603,0.406-0.854,0.449-1.505,0.105c-0.643-0.342-0.521-1.012-0.521-1.74V70.02h-4L515.637,100.021L515.637,100.021z"/>
</g>
<g>
	<path fill="#555555" d="M761.761,130.792c-25.392,0-46.047-20.654-46.047-46.045c0-25.391,20.655-46.047,46.047-46.047
		s46.047,20.656,46.047,46.047C807.808,110.136,787.15,130.792,761.761,130.792z M761.761,42.397
		c-23.353,0-42.353,18.998-42.353,42.351c0,23.353,19,42.351,42.353,42.351s42.351-18.998,42.351-42.351
		C804.109,61.395,785.111,42.397,761.761,42.397z"/>
	<path fill="#555555" d="M786.158,77.02h-10.797l-9.226-6.795c-0.342-0.262-0.76-0.205-1.188-0.205h-13.004
		c-0.599,0-1.16,0.073-1.535,0.536l-5.366,6.464h-7.681c-1.088,0-1.361,0.558-1.361,1.646v14.786c0,1.09,0.273,2.568,1.361,2.568
		h4.772c0.658,3,3.226,5.012,6.287,5.012c3.063,0,5.627-2.012,6.282-5.012h15.607c0.655,3,3.221,5.012,6.282,5.012
		c3.063,0,5.63-2.012,6.287-5.012h3.274c1.086,0,2.842-1.48,2.842-2.568V78.667C789,77.578,787.244,77.02,786.158,77.02z
		 M748.423,97.335c-0.992,0-1.861-0.314-2.349-1.314h4.692C750.281,97.021,749.412,97.335,748.423,97.335z M776.597,97.335
		c-0.989,0-1.858-0.314-2.344-1.314h4.69C778.455,97.021,777.589,97.335,776.597,97.335z M785,92.021h-46v-11h6.982
		c0.598,0,1.159-0.573,1.534-1.039l5.369-5.961h11.396l9.228,6.298c0.344,0.258,0.76,0.702,1.188,0.702h10.301L785,92.021
		L785,92.021z"/>
</g>
<g>
	<path fill="#555555" d="M308.309,130.792c-25.392,0-46.047-20.654-46.047-46.045c0-25.391,20.655-46.047,46.047-46.047
		c25.389,0,46.045,20.656,46.045,46.047C354.354,110.136,333.698,130.792,308.309,130.792z M308.309,42.395
		c-23.354,0-42.351,19-42.351,42.353c0,23.353,18.996,42.349,42.351,42.349c23.353,0,42.349-18.996,42.349-42.349
		C350.658,61.395,331.662,42.395,308.309,42.395z"/>
	<g>
		<path fill="#555555" d="M322.401,103.021h-28.717c-1.06,0-2.611-1.293-2.611-2.25V85.559c0-0.52,0.607-1.008,1.048-1.336
			l13.574-9.95c0.804-0.595,1.73-0.505,2.413,0.202l5.965,6.459v-2.297c0-0.953,1.527-2.616,2.585-2.616h5.743
			c1.058,0,1.672,1.663,1.672,2.616v22.133C324.073,101.728,323.458,103.021,322.401,103.021z M295.073,99.021h25v-19h-2v5.539
			c0,0.724-0.245,1.368-0.993,1.622s-1.466,0.061-1.987-0.484l-8.556-8.681l-11.464,8.36V99.021z"/>
		<path fill="#555555" d="M317.582,74.448c-0.338,0-0.679-0.125-0.938-0.38c-0.261-0.25-2.479-2.615-0.33-8.395
			c0.664-1.787,2.688-7.222,1.371-8.286c-0.582-0.47-0.677-1.322-0.205-1.905c0.471-0.582,1.323-0.673,1.905-0.203
			c2.363,1.906,1.55,5.752-0.532,11.342c-1.474,3.961-0.343,5.486-0.328,5.497c0.539,0.521,0.556,1.378,0.035,1.917
			C318.291,74.309,317.936,74.448,317.582,74.448z"/>
		<path fill="#555555" d="M322.016,74.448c-0.339,0-0.677-0.125-0.938-0.38c-0.261-0.25-2.479-2.615-0.33-8.395
			c0.666-1.787,2.688-7.222,1.37-8.286c-0.581-0.47-0.674-1.322-0.204-1.905c0.471-0.582,1.323-0.673,1.905-0.203
			c2.362,1.906,1.547,5.752-0.53,11.342c-1.476,3.961-0.345,5.486-0.33,5.497c0.539,0.521,0.555,1.378,0.034,1.917
			C322.725,74.309,322.373,74.448,322.016,74.448z"/>
	</g>
</g>
</svg>
